<?xml version="1.0" standalone="no"?><!DOCTYPE svg PUBLIC "-//W3C//DTD SVG 1.1//EN" "http://www.w3.org/Graphics/SVG/1.1/DTD/svg11.dtd"><svg t="1588902153955" class="icon" viewBox="0 0 1024 1024" version="1.1" xmlns="http://www.w3.org/2000/svg" p-id="1252" xmlns:xlink="http://www.w3.org/1999/xlink" width="200" height="200"><defs><style type="text/css"></style></defs><path d="M277.12 414.506667h21.333333v160.853333h-21.333333zM574.08 253.866667h21.333333v321.493333h-21.333333zM722.773333 382.72h21.333334v192.64h-21.333334zM320 867.84h403.626667v21.333333H320z" fill="#020202" p-id="1253"></path><path d="M870.613333 753.28H170.666667a87.68 87.68 0 0 1-87.04-87.68V201.386667A87.68 87.68 0 0 1 170.666667 113.92h699.946666a87.68 87.68 0 0 1 87.68 87.68V665.6a87.68 87.68 0 0 1-87.68 87.68zM170.666667 135.253333a66.346667 66.346667 0 0 0-65.706667 66.133334V665.6A66.346667 66.346667 0 0 0 170.666667 731.946667h699.946666a66.346667 66.346667 0 0 0 66.346667-66.346667V201.386667a66.346667 66.346667 0 0 0-66.346667-66.346667z" fill="#020202" p-id="1254"></path><path d="M425.6 323.84h21.333333v251.52h-21.333333zM510.293333 742.613333h21.333334v129.28h-21.333334z" fill="#020202" p-id="1255"></path></svg>